<svg xmlns="http://www.w3.org/2000/svg" viewBox="0 0 102 194.5"><defs><style>.cls-1{fill:none;stroke:#fff;stroke-miterlimit:10;stroke-width:0.5px;}</style></defs><title>Asset 6</title><g id="Layer_2" data-name="Layer 2"><g id="Layer_1-2" data-name="Layer 1"><path class="cls-1" d="M101.75,182.25v-170c0-6.63-5.09-12-11.38-12H11.63C5.34.25.25,5.62.25,12.25v170c0,6.63,5.09,12,11.38,12H90.37C96.66,194.25,101.75,188.88,101.75,182.25Z"/><line class="cls-1" x1="0.25" y1="19.72" x2="101.75" y2="19.72"/><line class="cls-1" x1="0.75" y1="173.38" x2="101.75" y2="173.38"/><circle class="cls-1" cx="51.25" cy="183.75" r="7"/><path class="cls-1" d="M52.21,10.35H59c1,0,1.71.45,1.71,1h0c0,.56-.76,1-1.71,1H42c-1,0-1.71-.45-1.71-1h0c0-.56.76-1,1.71-1Z"/><circle class="cls-1" cx="51.25" cy="120.25" r="16"/><path class="cls-1" d="M62.25,172.38v-5.64a2.51,2.51,0,0,0,2.51,2.51h0a2.5,2.5,0,0,0,2.49-2.49v-26a4.54,4.54,0,0,0-4.54-4.54H39.49a4.24,4.24,0,0,0-4.24,4.24v26.38a2.39,2.39,0,0,0,2.38,2.38h0a2.62,2.62,0,0,0,2.62-2.62v5.75Z"/><circle class="cls-1" cx="85.25" cy="77.25" r="16"/><path class="cls-1" d="M96.25,129.38v-5.64a2.51,2.51,0,0,0,2.51,2.51h0a2.5,2.5,0,0,0,2.49-2.49v-26a4.54,4.54,0,0,0-4.54-4.54H73.49a4.24,4.24,0,0,0-4.24,4.24v26.38a2.39,2.39,0,0,0,2.38,2.38h0a2.62,2.62,0,0,0,2.62-2.62v5.75Z"/><circle class="cls-1" cx="17.25" cy="78.25" r="16"/><path class="cls-1" d="M28.25,130.38v-5.64a2.51,2.51,0,0,0,2.51,2.51h0a2.5,2.5,0,0,0,2.49-2.49v-26a4.54,4.54,0,0,0-4.54-4.54H5.49a4.24,4.24,0,0,0-4.24,4.24v26.38a2.39,2.39,0,0,0,2.38,2.38h0a2.62,2.62,0,0,0,2.62-2.62v5.75Z"/><path class="cls-1" d="M81.75,40.71c0-4.17-3-7.55-6.76-7.61a8.24,8.24,0,0,0,.3-2.24c0-4.2-3.07-7.61-6.86-7.61a6.79,6.79,0,0,0-6.05,4,6.8,6.8,0,0,0-6.06-4,7.12,7.12,0,0,0-6.76,6.38l-.19,0a7.12,7.12,0,0,0-6.77-6.41,7.11,7.11,0,0,0-6.76,6.41,6.33,6.33,0,0,0-1.31-.14c-3.79,0-6.86,3.4-6.86,7.61a8.27,8.27,0,0,0,.47,2.75,7.86,7.86,0,0,0-2.89,6.2c0,4.2,3.07,7.61,6.86,7.61a6.35,6.35,0,0,0,3.7-1.21,6.78,6.78,0,0,0,6,3.9,6.57,6.57,0,0,0,1.47-.18,7,7,0,0,0,6.6,5.55,6.94,6.94,0,0,0,6.46-5.08A6.68,6.68,0,0,0,62,60a6.77,6.77,0,0,0,6-3.9,6.3,6.3,0,0,0,3.7,1.21c3.79,0,6.86-3.4,6.86-7.61a8.17,8.17,0,0,0-.32-2.29A7.76,7.76,0,0,0,81.75,40.71Z"/><circle class="cls-1" cx="47.25" cy="101.25" r="1"/><ellipse class="cls-1" cx="46.25" cy="95.75" rx="2" ry="1.5"/><ellipse class="cls-1" cx="72.25" cy="59.75" rx="2" ry="1.5"/><ellipse class="cls-1" cx="29.25" cy="59.75" rx="2" ry="1.5"/><ellipse class="cls-1" cx="44.75" cy="88.25" rx="2.5" ry="2"/><ellipse class="cls-1" cx="32.75" cy="56.35" rx="2.5" ry="1.5"/><ellipse class="cls-1" cx="45.25" cy="80.95" rx="3" ry="2.5"/><ellipse class="cls-1" cx="46.5" cy="73.25" rx="3.75" ry="3"/><ellipse class="cls-1" cx="47.75" cy="66.1" rx="4.5" ry="2.9"/><circle class="cls-1" cx="26.25" cy="62.25" r="1"/><circle class="cls-1" cx="75.25" cy="62.25" r="1"/><rect class="cls-1" x="38.25" y="32.25" width="21" height="14"/><polyline class="cls-1" points="41.25 46.25 41.25 48.25 61.25 48.25 61.25 34.96 61.25 33.25 59.25 33.25"/><polyline class="cls-1" points="61.25 35.25 63.25 35.25 63.25 50.25 42.25 50.25 42.25 48.25"/><polyline class="cls-1" points="38.25 46.25 46.25 38.25 50.25 43.58 52.25 46.25"/><polyline class="cls-1" points="59.25 46.25 54.25 40.25 50.25 43.25"/><circle class="cls-1" cx="50.75" cy="36.75" r="2.5"/></g></g></svg>