<svg xmlns="http://www.w3.org/2000/svg" viewBox="0 0 268 452.5"><defs><style>.cls-1{fill:none;stroke:#fff;stroke-miterlimit:10;}</style></defs><title>Asset 2</title><g id="Layer_2" data-name="Layer 2"><g id="Layer_1-2" data-name="Layer 1"><line class="cls-1" x1="122.5" y1="89.5" x2="122.5" y2="89.5"/><line class="cls-1" x1="0.5" y1="32" x2="0.5" y2="392"/><line class="cls-1" x1="267.5" y1="391.5" x2="267.5" y2="31.5"/><path class="cls-1" d="M267.5,32C267.5,14.6,207.73.5,134,.5S.5,14.6.5,32"/><path class="cls-1" d="M267.5,38c0-17.4-59.77-31.5-133.5-31.5S.5,20.6.5,38"/><path class="cls-1" d="M267.5,70c0-17.4-59.77-31.5-133.5-31.5S.5,52.6.5,70"/><path class="cls-1" d="M267.5,77c0-17.4-59.77-31.5-133.5-31.5S.5,59.6.5,77"/><path class="cls-1" d="M267.5,392c0-17.4-59.77-31.5-133.5-31.5S.5,374.6.5,392"/><path class="cls-1" d="M267.5,384c0-17.4-59.77-31.5-133.5-31.5S.5,366.6.5,384"/><path class="cls-1" d="M267.5,348c0-17.4-59.77-31.5-133.5-31.5S.5,330.6.5,348"/><path class="cls-1" d="M267.5,340c0-17.4-59.77-31.5-133.5-31.5S.5,322.6.5,340"/><ellipse class="cls-1" cx="134.28" cy="437.26" rx="26.44" ry="10.74"/><ellipse class="cls-1" cx="187.17" cy="437.26" rx="26.44" ry="10.74"/><ellipse class="cls-1" cx="81.39" cy="437.26" rx="26.44" ry="10.74"/><ellipse class="cls-1" cx="134.28" cy="399.24" rx="26.44" ry="10.74"/><ellipse class="cls-1" cx="187.17" cy="399.24" rx="26.44" ry="10.74"/><ellipse class="cls-1" cx="81.39" cy="399.24" rx="26.44" ry="10.74"/><ellipse class="cls-1" cx="160.72" cy="418.25" rx="26.44" ry="10.74"/><ellipse class="cls-1" cx="213.61" cy="418.25" rx="26.44" ry="10.74"/><ellipse class="cls-1" cx="107.83" cy="418.25" rx="26.44" ry="10.74"/><ellipse class="cls-1" cx="54.94" cy="418.25" rx="26.44" ry="10.74"/><line class="cls-1" x1="54.5" y1="400" x2="54.5" y2="378"/><line class="cls-1" x1="54.5" y1="437.5" x2="54.5" y2="429"/><line class="cls-1" x1="134.5" y1="416.5" x2="134.5" y2="410"/><line class="cls-1" x1="107.5" y1="399" x2="107.5" y2="377"/><line class="cls-1" x1="213.5" y1="399" x2="213.5" y2="377"/><line class="cls-1" x1="160.5" y1="399" x2="160.5" y2="377"/><line class="cls-1" x1="81.5" y1="418.5" x2="81.5" y2="410"/><line class="cls-1" x1="81.5" y1="409.5" x2="81.5" y2="412.5"/><line class="cls-1" x1="160.5" y1="435.5" x2="160.5" y2="429"/><line class="cls-1" x1="187" y1="416.5" x2="187" y2="410"/><line class="cls-1" x1="107.5" y1="435.5" x2="107.5" y2="429"/><line class="cls-1" x1="208" y1="452" x2="208" y2="452"/><path class="cls-1" d="M30.23,414.17C20.45,411.3.54,405,.5,392"/><path class="cls-1" d="M267.5,392c-5.2,11.85-15.91,19-27.75,23.23"/><line class="cls-1" x1="28.5" y1="419" x2="28.5" y2="397"/><line class="cls-1" x1="240" y1="419" x2="240" y2="397"/><line class="cls-1" x1="213.5" y1="435.5" x2="213.5" y2="429"/><path class="cls-1" d="M18.36,152.08C18,209,18,267,18.36,324.25"/><path class="cls-1" d="M18.36,61.25q-.3,22.78-.26,45.56"/><path class="cls-1" d="M45.11,106.49C45,89,45,71,45.11,54.25"/><path class="cls-1" d="M45.11,316.5C45,262,45,207,45.11,152.44"/><path class="cls-1" d="M249.51,152C249,209.21,251,265.6,249,323h.51"/><path class="cls-1" d="M249.51,60q.42,23,.37,46"/><path class="cls-1" d="M223.11,106.77C223,89,223,72,223.11,54.25"/><path class="cls-1" d="M223.11,316.5C223,262,223,207,223.06,152.3"/><rect class="cls-1" x="15.5" y="106.5" width="33" height="46"/><rect class="cls-1" x="220" y="106.5" width="33" height="46"/><polyline class="cls-1" points="48.5 115.87 220 115.87 220 141.86 54.94 141.86 48.5 141.86"/><path class="cls-1" d="M84.5,165.34V141.86"/><path class="cls-1" d="M78.5,141.5v23.77"/><polyline class="cls-1" points="78.5 165 81.5 169 84.5 165"/><path class="cls-1" d="M96.89,159V141.76"/><path class="cls-1" d="M92.5,141.5v17.4"/><polyline class="cls-1" points="92.5 158.71 94.7 161.63 96.89 158.71"/><path class="cls-1" d="M122.89,159V141.76"/><path class="cls-1" d="M118.5,141.5v17.4"/><polyline class="cls-1" points="118.5 158.71 120.7 161.63 122.89 158.71"/><path class="cls-1" d="M149.89,159V141.76"/><path class="cls-1" d="M145.5,141.5v17.4"/><polyline class="cls-1" points="145.5 158.71 147.7 161.63 149.89 158.71"/><path class="cls-1" d="M175.89,159V141.76"/><path class="cls-1" d="M171.5,141.5v17.4"/><polyline class="cls-1" points="171.5 158.71 173.7 161.63 175.89 158.71"/><path class="cls-1" d="M202.89,159V141.76"/><path class="cls-1" d="M198.5,141.5v17.4"/><polyline class="cls-1" points="198.5 158.71 200.7 161.63 202.89 158.71"/><path class="cls-1" d="M69.89,159V141.76"/><path class="cls-1" d="M65.5,141.5v17.4"/><polyline class="cls-1" points="65.5 158.71 67.7 161.63 69.89 158.71"/><path class="cls-1" d="M57.5,165.34V141.86"/><path class="cls-1" d="M51.5,141.5v23.77"/><polyline class="cls-1" points="51.5 165 54.5 169 57.5 165"/><path class="cls-1" d="M110.5,166.34V142.86"/><path class="cls-1" d="M104.5,142.5v23.77"/><polyline class="cls-1" points="104.5 166 107.5 170 110.5 166"/><path class="cls-1" d="M137.5,165.34V141.86"/><path class="cls-1" d="M131.5,141.5v23.77"/><polyline class="cls-1" points="131.5 165 134.5 169 137.5 165"/><path class="cls-1" d="M163.5,165.34V141.86"/><path class="cls-1" d="M157.5,141.5v23.77"/><polyline class="cls-1" points="157.5 165 160.5 169 163.5 165"/><path class="cls-1" d="M190.5,165.34V141.86"/><path class="cls-1" d="M184.5,141.5v23.77"/><polyline class="cls-1" points="184.5 165 187.5 169 190.5 165"/><path class="cls-1" d="M216.5,165.34V141.86"/><path class="cls-1" d="M210.5,141.5v23.77"/><polyline class="cls-1" points="210.5 165 213.5 169 216.5 165"/><line class="cls-1" x1="48.5" y1="111.66" x2="220" y2="111.66"/></g></g></svg>