<svg xmlns="http://www.w3.org/2000/svg" xmlns:xlink="http://www.w3.org/1999/xlink" width="1600.744" height="1047.23" viewBox="0 0 1600.744 1047.23">
  <defs>
    <filter id="Subtraction_2" x="0" y="0" width="1600.744" height="1047.23" filterUnits="userSpaceOnUse">
      <feOffset dy="3" input="SourceAlpha"/>
      <feGaussianBlur stdDeviation="3" result="blur"/>
      <feFlood flood-opacity="0.161"/>
      <feComposite operator="in" in2="blur"/>
      <feComposite in="SourceGraphic"/>
    </filter>
  </defs>
  <g transform="matrix(1, 0, 0, 1, 0, 0)" filter="url(#Subtraction_2)">
    <path id="Subtraction_2-2" data-name="Subtraction 2" d="M1920.461,1069.23H337.718c61.172-12.371,113.291-23.442,154.907-32.906,49.525-11.262,84.786-20.39,104.8-27.131a38.526,38.526,0,0,0,13.787-7.586,22,22,0,0,0,6.567-10.613,28.767,28.767,0,0,0,.55-11.264,56.171,56.171,0,0,0-3.563-13.023c-3.417-8.7-9.053-18.661-17.229-30.454-6.934-10-15.507-21.085-26.98-34.879-10.111-12.156-20.854-24.476-32.228-37.518l-.038-.044,0-.005c-28.638-32.839-58.251-66.8-76.048-96.8a159.773,159.773,0,0,1-10.941-21.7,77.745,77.745,0,0,1-5.333-19.766,46.493,46.493,0,0,1-.192-9.014,36.242,36.242,0,0,1,1.656-8.358,33.072,33.072,0,0,1,3.653-7.643,36.794,36.794,0,0,1,5.8-6.87c3.768-3.52,9.456-7.635,16.905-12.23,7.124-4.394,16.1-9.379,26.691-14.815,19.621-10.075,45.067-21.9,77.792-36.166,61.067-26.613,137.6-57.387,218.626-89.968,112.631-45.29,229.1-92.121,316.994-132.992,22.738-10.573,42.865-20.438,59.824-29.323,18.217-9.545,33.5-18.333,45.412-26.12,6.244-4.081,11.716-7.985,16.264-11.6a93.692,93.692,0,0,0,11.416-10.5,32.2,32.2,0,0,0,6.153-9.287,11.391,11.391,0,0,0,.475-7.975,21.282,21.282,0,0,0-6.547-9.095,49.025,49.025,0,0,0-12.332-7.356,115.693,115.693,0,0,0-17.48-5.78c-6.437-1.637-13.836-3.106-21.992-4.365a549.353,549.353,0,0,0-54.969-5.136c-19.078-.958-40.461-1.424-65.371-1.424-41.694,0-86.2,1.32-131.946,2.79l-6.084.2-2.17.07c-40.234,1.3-78.236,2.523-109.24,2.524-21.9,0-38.473-.617-50.661-1.886A110.145,110.145,0,0,1,758.31,280.5c-4.358-1.162-7.413-2.581-9.082-4.22a7.847,7.847,0,0,1-2.233-6c.051-2.729,1.069-6.109,3.027-10.045a90.31,90.31,0,0,1,8.246-12.993c6.646-8.979,16.14-19.777,29.025-33.012,23.876-24.525,55.6-53.449,86.287-81.421l.024-.022c19.593-17.862,38.1-34.733,54.759-50.583C947.244,64.244,960.339,50.833,969.575,40h950.887V1069.229Z" transform="translate(-328.72 -34)" fill="#fff"/>
  </g>
</svg>
