<svg xmlns="http://www.w3.org/2000/svg" xmlns:xlink="http://www.w3.org/1999/xlink" width="823.475" height="808.461" viewBox="0 0 823.475 808.461">
  <defs>
    <style>
      .cls-1 {
        fill: url(#radial-gradient);
      }

      .cls-2 {
        fill: #5c5c5c;
      }
    </style>
    <radialGradient id="radial-gradient" cx="0.5" cy="0.5" r="0.5" gradientUnits="objectBoundingBox">
      <stop offset="0" stop-color="#00d9ff"/>
      <stop offset="0.512" stop-color="#0adaff"/>
      <stop offset="1" stop-color="#d8b8fd"/>
    </radialGradient>
  </defs>
  <g id="Group_2" data-name="Group 2" transform="translate(-1096.679 -399)">
    <ellipse id="Ellipse_1" data-name="Ellipse 1" class="cls-1" cx="195" cy="115" rx="195" ry="115" transform="translate(1311 399)"/>
    <g id="Group_1" data-name="Group 1">
      <path id="Intersection_3" data-name="Intersection 3" class="cls-2" d="M3.182,742.555s-7.16-46.087,0-69.395,21.968-24.913,29.2-31.754,20.267-12.227,37.163-16.832,81.908-14.981,98.223-19.021,152.938-40.894,163.643-48.169,7.921-19.777,10.406-29.084,2.5-41.029,0-48.982-7.04-11.435-15.12-14.68-46.008,5.777-46.008,5.777-49.289,15.235-58.411,14.973-23.2-6.725-27.9-10.624-7.568-16.284-8.947-20.688,1.143-23.814,0-28.077-19.337-12.558-21.748-18.382-1.813-11.3,0-13.63,14.422-8.365,14.422-8.365-15.306-2.9-19.082-5.861-10.775-12.815-11.186-18.086,2.391-14.329,3.909-18.394,1.985-7.68,0-10.829-15.278-5.835-20.163-9.984-14.9-11.063-16.323-15.766-2.477-12.573,0-18.57,24.547-35.068,28.4-41.684S155.778,221,159.023,212.674s2.027-18.481,0-25.325-14.724-24.438-15.367-32.3-.3-10.119,0-21.853,6.755-42.786,15.367-72.866,17.744-37.75,17.744-37.75c5.876-7.779,5.52-7.471,24.124-19.733C202.641,1.692,207.4.753,214.587,0H410.329V742.555Z" transform="translate(1096.678 464.906)"/>
      <path id="Intersection_1" data-name="Intersection 1" d="M0,742.555V0H194.929a15.713,15.713,0,0,1,2.633.528s23.833.92,33.574,15.317,13.694,14.4,22.382,44.482,15.2,61.133,15.5,72.866.648,13.99,0,21.853-13.457,25.457-15.5,32.3-3.273,17,0,25.325,11.617,27.158,15.5,33.776,26.148,35.687,28.646,41.684,1.439,13.865,0,18.57S286.129,318.321,281.2,322.47s-18.337,6.836-20.341,9.984-1.53,6.763,0,10.829,4.358,13.124,3.944,18.394-7.475,15.126-11.284,18.086-19.25,5.861-19.25,5.861,12.719,6.035,14.549,8.365,2.43,7.807,0,13.63S228.032,421.736,226.878,426s1.391,23.674,0,28.077-4.286,16.79-9.026,20.688-18.944,10.362-28.147,10.624-58.925-14.973-58.925-14.973-38.262-9.022-46.413-5.777-12.729,6.727-15.254,14.68-2.507,39.676,0,48.982-.3,21.811,10.5,29.084,148.624,44.129,165.082,48.169,82.044,14.414,99.088,19.021,30.192,9.991,37.49,16.832,22.236,8.446,29.459,31.754,0,69.395,0,69.395Z" transform="translate(1506.213 464.906)"/>
    </g>
  </g>
</svg>
