<svg xmlns="http://www.w3.org/2000/svg" xmlns:xlink="http://www.w3.org/1999/xlink" width="1254.301" height="1025.352" viewBox="0 0 1254.301 1025.352">
  <defs>
    <style>
      .cls-1 {
        stroke: #707070;
        fill: url(#linear-gradient);
      }
    </style>
    <linearGradient id="linear-gradient" x1="0.5" x2="0.5" y2="1" gradientUnits="objectBoundingBox">
      <stop offset="0" stop-color="#0b8984"/>
      <stop offset="0.089" stop-color="#1a84bc"/>
      <stop offset="1" stop-color="#b909e3"/>
    </linearGradient>
  </defs>
  <path id="Subtraction_3" data-name="Subtraction 3" class="cls-1" d="M359.309,1024.808l0,0h0l-358.811,0V.808H968.728c-9.2,10.7-22.076,23.852-40.519,41.4-16.656,15.846-35.151,32.706-54.732,50.557l-.027.025-.023.022-.041.037-.006.006C842.713,120.81,811,149.718,787.139,174.231c-12.885,13.236-22.38,24.034-29.025,33.012a90.34,90.34,0,0,0-8.247,12.992c-1.958,3.937-2.976,7.316-3.027,10.045a7.847,7.847,0,0,0,2.233,6c1.669,1.639,4.724,3.058,9.082,4.219a110.135,110.135,0,0,0,16.333,2.718c12.186,1.269,28.757,1.885,50.661,1.885,31.01,0,69.01-1.226,109.24-2.524l2.17-.069,6.084-.2c45.76-1.47,90.285-2.79,131.946-2.79,24.9,0,46.287.466,65.371,1.425a549.2,549.2,0,0,1,54.969,5.136c8.152,1.258,15.552,2.727,21.993,4.365a115.683,115.683,0,0,1,17.48,5.78,49.007,49.007,0,0,1,12.333,7.357,21.288,21.288,0,0,1,6.547,9.094,11.392,11.392,0,0,1-.475,7.975,32.181,32.181,0,0,1-6.152,9.286,93.749,93.749,0,0,1-11.416,10.5c-4.542,3.615-10.015,7.519-16.264,11.6-11.923,7.791-27.2,16.579-45.412,26.12-16.96,8.886-37.088,18.752-59.823,29.323-87.905,40.876-204.367,87.7-316.994,132.992-81.018,32.578-157.543,63.348-218.626,89.968-32.734,14.266-58.18,26.1-77.792,36.166-10.59,5.438-19.57,10.422-26.69,14.815-7.45,4.6-13.137,8.71-16.906,12.23a36.807,36.807,0,0,0-5.8,6.871,33.045,33.045,0,0,0-3.653,7.643,36.225,36.225,0,0,0-1.656,8.358,46.483,46.483,0,0,0,.192,9.014,77.746,77.746,0,0,0,5.333,19.766A159.864,159.864,0,0,0,462.087,727c17.8,30.013,47.412,63.967,76.048,96.8l0,.005.038.044c11.367,13.034,22.1,25.345,32.228,37.517,11.477,13.8,20.05,24.882,26.979,34.879,8.177,11.794,13.813,21.756,17.23,30.454a56.182,56.182,0,0,1,3.562,13.023,28.774,28.774,0,0,1-.549,11.263,22,22,0,0,1-6.567,10.613,38.526,38.526,0,0,1-13.787,7.586c-20.02,6.742-55.281,15.87-104.8,27.131-36.5,8.3-81.306,17.885-133.158,28.484Z" transform="translate(0 -0.308)"/>
</svg>
