<svg xmlns="http://www.w3.org/2000/svg" xmlns:xlink="http://www.w3.org/1999/xlink" viewBox="0 0 268.54 268.48"><defs><style>.cls-1{fill:#fff;}.cls-2{fill:none;stroke:#000;stroke-miterlimit:10;}.cls-3{fill:#0797ef;}.cls-4{fill:url(#Orchid);}.cls-5{fill:url(#Orchid-2);}</style><linearGradient id="Orchid" x1="184.03" y1="195.12" x2="267.41" y2="195.12" gradientUnits="userSpaceOnUse"><stop offset="0" stop-color="#ff7bac"/><stop offset="0.22" stop-color="#ff7bac" stop-opacity="0.76"/><stop offset="0.6" stop-color="#ff7bac" stop-opacity="0.36"/><stop offset="0.87" stop-color="#ff7bac" stop-opacity="0.1"/><stop offset="1" stop-color="#ff7bac" stop-opacity="0"/></linearGradient><linearGradient id="Orchid-2" x1="0" y1="68.31" x2="135.11" y2="68.31" xlink:href="#Orchid"/></defs><title>logo</title><g id="Layer_2" data-name="Layer 2"><g id="Layer_1-2" data-name="Layer 1"><path class="cls-1" d="M186.49,84.85v92.66h-.05v79.95h0A133.57,133.57,0,0,1,.94,135H63.82a72.47,72.47,0,0,0,5.48,28c11,26.45,38.11,43.77,66.57,43.86h.07c-.5-47.9-.5-95.88-1.27-143.87V1a133.5,133.5,0,0,1,133.27,133.5v.5H207.13a74.13,74.13,0,0,0-20.08-50.14Z"/><path class="cls-1" d="M186.49,185.37h.11a73.06,73.06,0,0,0,15-22.18,69.47,69.47,0,0,0,5.56-28.2h60.81a133.53,133.53,0,0,1-81.5,122.49h0V177.51h.05Z"/><path class="cls-1" d="M207.13,135a69.47,69.47,0,0,1-5.56,28.2,73.06,73.06,0,0,1-15,22.18h-.11V84.85h.56A74.13,74.13,0,0,1,207.13,135Z"/><path class="cls-1" d="M135.94,206.85h-.07c-28.46-.09-55.6-17.41-66.57-43.86A72.09,72.09,0,0,1,133.61,63l1.06,0C135.44,111,135.44,159,135.94,206.85Z"/><path class="cls-1" d="M134.67,1V63l-1.06,0A72.88,72.88,0,0,0,85.26,83.61,72,72,0,0,0,63.82,135H.94v-.5A133.5,133.5,0,0,1,134.44,1Z"/><path class="cls-2" d="M134.67,1a133.5,133.5,0,0,1,133.27,133.5v.5a133.5,133.5,0,0,1-267,0v-.5A133.5,133.5,0,0,1,134.44,1Z"/><line class="cls-2" x1="134.67" y1="62.98" x2="134.67" y2="0.98"/><path class="cls-2" d="M135.87,206.85c-28.46-.09-55.6-17.41-66.57-43.86A72.09,72.09,0,0,1,133.61,63"/><path class="cls-2" d="M187.05,84.85A74.13,74.13,0,0,1,207.13,135a69.47,69.47,0,0,1-5.56,28.2,73.06,73.06,0,0,1-15,22.18"/><path class="cls-2" d="M134.67,63c.77,48,.77,96,1.27,143.87v0"/><path class="cls-2" d="M207.88,135h60.17"/><polyline class="cls-2" points="186.49 84.21 186.49 84.85 186.49 177.51 186.49 185.37 186.49 185.75"/><line class="cls-2" x1="63.62" y1="134.98" x2="0.94" y2="134.98"/><line class="cls-2" x1="186.44" y1="177.51" x2="186.44" y2="257.46"/><path class="cls-3" d="M268.34,129.44l-.06-.13a3.87,3.87,0,0,0-.48-1.2c0-5.09-1.31-10.26-2.14-15.23a5.74,5.74,0,0,0-.35-1.21c-1-4.66-1.46-9.46-2.75-14.1a87.63,87.63,0,0,0-6.28-16.44,6.65,6.65,0,0,0-.46-.74,5.33,5.33,0,0,0-.51-2c-3.73-8-8.07-16.89-14.28-23.26a73.77,73.77,0,0,0-8.86-11.42,6.57,6.57,0,0,0-1.81-2l-.79-.57c-.75-.68-1.51-1.36-2.3-2a3.63,3.63,0,0,0-.46-.34c-.07-.09-.15-.18-.22-.28a5,5,0,0,0-2.25-1.87,5,5,0,0,0-1.11-1.45c-4.62-4.26-9.33-8.57-15-11.45a3.52,3.52,0,0,0-.49-.22c-.1-.1-.19-.21-.3-.3L206,22a6.48,6.48,0,0,0-2.33-1.2c-.41-.37-.8-.77-1.19-1.09a26,26,0,0,0-4.53-2.94,38.68,38.68,0,0,0-8.23-3.36,3.6,3.6,0,0,0-1.28-1C183.61,10.34,178.2,7.8,173,7a7.55,7.55,0,0,0-1.25-.07l-1.48-.68a5.05,5.05,0,0,0-3-.45,4.72,4.72,0,0,0-3.16-1.1,5.83,5.83,0,0,0-1,.08,52.19,52.19,0,0,0-6.44-1.46c-3.71-.54-7.16-1.81-10.85-1.36a26.19,26.19,0,0,0-3.7-.61h-.43a5.47,5.47,0,0,0-1.56-.76,5.1,5.1,0,0,0-3.86.51,5.05,5.05,0,0,0-2.3,3c-.05.45-.11.89-.17,1.33a4.92,4.92,0,0,0,.39,2l1,35.8a.22.22,0,0,0,0,.08,4.72,4.72,0,0,0-.52,2.16q0,11.09.55,22.14s0,.1,0,.14a4.68,4.68,0,0,0-.44,2q0,3.28.1,6.57a5,5,0,0,0,.18,1.32,5.3,5.3,0,0,0,.1.8c0,.14,0,.28,0,.42v3.5a4.78,4.78,0,0,0,.56,2.31h0a5,5,0,0,0-.13,1v0a6,6,0,0,0,.06,1h0a131.75,131.75,0,0,0,0,19.26,211,211,0,0,1-.51,27.77,4,4,0,0,0,.51,2.41,6,6,0,0,0,.41,3.91,5.73,5.73,0,0,0,0,1.24,4.68,4.68,0,0,0-.66,2.68l.73,20.63a5.63,5.63,0,0,0,.11.93q-.51,6.83-.85,13.68a4.49,4.49,0,0,0,.78,2.62,5.09,5.09,0,0,0-.12,1.13c-.05,7.71-.57,15.57-.15,23.27a1.23,1.23,0,0,1,0,.2,40.67,40.67,0,0,1-9-.16c-3-.57-5.51-1.18-8.61-1a4.79,4.79,0,0,0-.87.14,4.31,4.31,0,0,0-2.27-1.16,30.47,30.47,0,0,0-3.39-1.82c-2.83-1.21-5.77-2.12-8.57-3.4a68.44,68.44,0,0,1-16.07-10.33,5.27,5.27,0,0,0-1.58-.91,4.56,4.56,0,0,0-2.88-3.29,4.62,4.62,0,0,0-1-1.36q-1.71-1.58-3.35-3.21a5.33,5.33,0,0,0-.61-1.25q-3.92-6-7.68-12.12a5.18,5.18,0,0,0-.35-1.35l-1.13-2.81a5.09,5.09,0,0,0-.37-3.36c-1-2.17-2-4.55-2.91-7a5.36,5.36,0,0,0-.06-2.18q-.17-.69-.3-1.38s-.12-1.07-.13-1.23a23.49,23.49,0,0,1,.09-3.46,4,4,0,0,0-.77-2.71,4.39,4.39,0,0,0-3.47-5.49c-4.74-1-9.42-.52-14.23-.37-5.23.15-10.46.1-15.69-.22a4.71,4.71,0,0,0-2.57.52,49.32,49.32,0,0,0-12-.3c-.81.1-1.71.18-2.64.27a16,16,0,0,0-2.4-.41c-1.78-.1-3.51.51-5.27.49-2.95,0-6.07,3.27-4.83,6.33.85,2.09.8,4.26,1.09,6.44a2.43,2.43,0,0,0,0,.27,68.83,68.83,0,0,0,2.27,14.06,5.23,5.23,0,0,0,.1,1.83,67.59,67.59,0,0,0,2.71,9.42,5,5,0,0,0,.59,2.76c2.79,5.41,4.37,11.39,7.09,16.88a77.34,77.34,0,0,0,4.16,7.31,4.13,4.13,0,0,0,.66,2.6c1.9,2.86,4.06,6.28,6.7,8.68a14.05,14.05,0,0,0,2.24,4.16c2.93,3.53,6.5,6.88,9.67,10.23,6.89,7.28,15.37,13.76,23.46,19.64a4.52,4.52,0,0,0,1.87.83A4.45,4.45,0,0,0,67,249c5.21,3.46,10.88,6.64,16.89,8.37a4.43,4.43,0,0,0,3.51,1.31,1.33,1.33,0,0,1,.2,0A4.54,4.54,0,0,0,91.78,261a5.55,5.55,0,0,0,.94-.09,11.75,11.75,0,0,0,1.92,1c3.27,1.19,6.65,2.17,10,3.24a4.39,4.39,0,0,0,3.65-.26,5.8,5.8,0,0,0,.89.21l2.75.36a4.61,4.61,0,0,0,2.48,1.26,21.54,21.54,0,0,0,6.56,0,4.63,4.63,0,0,0,3.48,1.42,5.23,5.23,0,0,0,1.78-.3,5.39,5.39,0,0,0,.71,0,5,5,0,0,0,2.46-.61l.33,0c6.33.46,12.79.24,19.14.18a4.94,4.94,0,0,0,2.45-.64,5.22,5.22,0,0,0,1.28.15,4.61,4.61,0,0,0,3.44-1.37l6.14-.42a5,5,0,0,0,2.88-1.11,5.08,5.08,0,0,0,1.49-.26c1.72-.57,3.53-1.32,5.36-1.93,1.24-.23,2.51-.4,3.85-.77a3.86,3.86,0,0,0,.6-.21c.22,0,.44,0,.66,0a4.71,4.71,0,0,0,3.47-1.47,19.86,19.86,0,0,0,2.75-.51,4.91,4.91,0,0,0,3.4-5.67c.38-5.86-.3-11.79-.67-17.63a5.28,5.28,0,0,0-.35-1.6,5.12,5.12,0,0,0,1.39-4.5c-2.18-13.13,0-26.44-1-39.63a4.57,4.57,0,0,0,.7-2.86c-.52-9-.63-18-.27-27,.12-3,.23-5.94.12-8.82a4.54,4.54,0,0,0,1.05-3.21q-.36-10.94-.73-21.87c-.16-4.95.17-10.18-1-15,0-2.38,0-4.77,0-7.15a5,5,0,0,0,.17-1.73c0-.74-.09-1.48-.13-2.22q.06-7.49.21-15v-.55c6.12,4,10.32,11.19,13.59,17.68a5.69,5.69,0,0,0,.32.93c.59,1.33,2.08,3.82,2.82,5.52a4.54,4.54,0,0,0,.2,2.54q1.28,3.59,2.54,7.17a3.38,3.38,0,0,0,0,.71,9.43,9.43,0,0,0,.85,3.5,6.63,6.63,0,0,0-.33,1.57c-.15,1.69.95,2.69,1.17,4.14a5,5,0,0,0,4.4,7.32,5.43,5.43,0,0,0,2.84-.91c4.49-.06,9-.14,13.47-.18a41.61,41.61,0,0,0,9.85,0l.36-.08c.88.09,1.77.18,2.69.23,4.2.24,8.4-.08,12.61.21.21,0,.42,0,.62,0l.81.07a34.28,34.28,0,0,0,5.36.11,4,4,0,0,0,.5-.05,1.12,1.12,0,0,0,.22.16,5,5,0,0,0,6.84-1.79A5,5,0,0,0,268.34,129.44Z"/><path class="cls-4" d="M266.38,148.34a11.21,11.21,0,0,0,.76-6.44c.94-3-.56-6.69-4.54-6.46s-7.76.36-11.65.39a4.69,4.69,0,0,0-2.63-.64c-3.29.1-6.67.35-10,.46a4,4,0,0,0-2.29-.36,34.57,34.57,0,0,1-5.64.26c-1.15-.09-2.3-.2-3.43-.38a5.19,5.19,0,0,0-2.72.24,5.58,5.58,0,0,0-2,.09h-6.44a8.06,8.06,0,0,0-1-1.39,5,5,0,0,0-7.07,0,5.12,5.12,0,0,0-1.21,4.9l-.06.09a5.07,5.07,0,0,0,.53,5.78s0,.05,0,.07c-1.17,8.79-4.79,19.54-9.73,27-2.46,3.7-6,6.53-8.19,10.47a16.16,16.16,0,0,0-1.15,2.67,4.73,4.73,0,0,0-.75,4.61.81.81,0,0,1,0,.16,4,4,0,0,0-.82,2.84c1.58,15.13.45,30.79.41,46a5,5,0,0,0,.49,2.24,5.64,5.64,0,0,0-.09,1.19c0,.86,0,1.73,0,2.6q-.21.5-.39,1c-.26.7-.47,1.42-.7,2.13l-.25.76a.42.42,0,0,1,0,.06l-.27.22c-4.21,3.69,1.48,11.27,6.06,7.86a11.85,11.85,0,0,0,1-.83l0,0a22.76,22.76,0,0,0,2.68-2.56,6.26,6.26,0,0,0,6.6-3.94,20.71,20.71,0,0,1,1.94-1A3.7,3.7,0,0,0,205.4,247a19.2,19.2,0,0,0,1.63-1.26,5,5,0,0,0,3.4-1.3c1.5-1.31,3-2.6,4.55-3.9a4.66,4.66,0,0,0,.6-.35c5.2-3.5,10.1-7.14,13.59-12.36a5.11,5.11,0,0,0,1.91-1.63c2.7-3.8,6.1-6.52,8.54-10.22a5,5,0,0,0,2.17-2c2.57-4.28,5.71-8.58,7.82-13.21a4.77,4.77,0,0,0,2.07-1.43c2.38-2.72,3.07-5.39,4.25-8.68.68-1.88,1.49-3.55,2.08-5.32a4.3,4.3,0,0,0,2.23-2.29,66.77,66.77,0,0,0,6.28-27.29,4.55,4.55,0,0,0-1.51-3.63c.17-.71.34-1.42.49-2.14A9.16,9.16,0,0,0,266.38,148.34Z"/><path class="cls-5" d="M135.05,57a126.31,126.31,0,0,1-1.34-19.55,9.12,9.12,0,0,0,1.16-5.18,7.61,7.61,0,0,0-.87-2.62,136.89,136.89,0,0,0,0-20.75,4.86,4.86,0,0,0-.1-.55c2.19-3.62-.35-9.42-5.05-7.55a4.55,4.55,0,0,0-4.13-.6c-4.92,1.42-10,1.41-15,2.51-5.14,1.13-10,3.34-15.11,4.54a39.84,39.84,0,0,0-8.4,3A4.84,4.84,0,0,0,82,11.51c-2.53,2.27-6.37,2.71-9.4,4.05a25,25,0,0,0-6.7,4.62c-.33.3-.66.63-1,1a11,11,0,0,0-3.09,1.61l0,0c-.34.23-.68.48-1,.75a0,0,0,0,1,0,0,19.77,19.77,0,0,0-2.58.15c-3,.65-5.33,2.57-7.57,4.61A147.93,147.93,0,0,0,34.73,44.47a12,12,0,0,0-2.65,4.3A79.05,79.05,0,0,0,8.62,90.85,4.63,4.63,0,0,0,6.24,93C3.79,97.33,4.86,101.32,4,105.93s-2.92,7.83-2.23,12.81A4.19,4.19,0,0,0,2.15,120a8.89,8.89,0,0,0-.69,4.69Q.83,127,.18,129.42a5.06,5.06,0,0,0,6.15,6.15c7.07-1.52,14.61-1.32,22.07-.83A4.61,4.61,0,0,0,30,135c1.1,0,2.21,0,3.31.06,2.88.22,5.72.44,8.5.56a4.68,4.68,0,0,0,3.11-.86A101,101,0,0,0,59,136.61c2.7.21,4.73-2.18,5-4.67a6,6,0,0,0,.32-1c1.76-9.41,2.87-19.39,6.64-28.26a5.17,5.17,0,0,0,.21-.63A5,5,0,0,0,73,98.28c4.32-4.86,7.42-10.67,12-15.36a46.51,46.51,0,0,1,18.63-11.73,5.06,5.06,0,0,0,2.14-1.36c7.67-2.77,16.44-7,24.52-6.47C133.82,63.6,135.47,60,135.05,57Z"/></g></g></svg>