<svg xmlns="http://www.w3.org/2000/svg" viewBox="0 0 102 194.5"><defs><style>.cls-1{fill:none;stroke:#fff;stroke-miterlimit:10;stroke-width:0.5px;}</style></defs><title>Asset 7</title><g id="Layer_2" data-name="Layer 2"><g id="Layer_1-2" data-name="Layer 1"><path class="cls-1" d="M101.75,182.25v-170c0-6.63-5.09-12-11.38-12H11.63C5.34.25.25,5.62.25,12.25v170c0,6.63,5.09,12,11.38,12H90.37C96.66,194.25,101.75,188.88,101.75,182.25Z"/><line class="cls-1" x1="0.25" y1="19.72" x2="101.75" y2="19.72"/><line class="cls-1" x1="0.75" y1="173.38" x2="101.75" y2="173.38"/><circle class="cls-1" cx="51.25" cy="183.75" r="7"/><path class="cls-1" d="M52.21,10.35H59c1,0,1.71.45,1.71,1h0c0,.56-.76,1-1.71,1H42c-1,0-1.71-.45-1.71-1h0c0-.56.76-1,1.71-1Z"/><circle class="cls-1" cx="51.25" cy="120.25" r="16"/><path class="cls-1" d="M62.25,172.38v-5.64a2.51,2.51,0,0,0,2.51,2.51h0a2.5,2.5,0,0,0,2.49-2.49v-26a4.54,4.54,0,0,0-4.54-4.54H39.49a4.24,4.24,0,0,0-4.24,4.24v26.38a2.39,2.39,0,0,0,2.38,2.38h0a2.62,2.62,0,0,0,2.62-2.62v5.75Z"/><circle class="cls-1" cx="85.25" cy="77.25" r="16"/><path class="cls-1" d="M96.25,129.38v-5.64a2.51,2.51,0,0,0,2.51,2.51h0a2.5,2.5,0,0,0,2.49-2.49v-26a4.54,4.54,0,0,0-4.54-4.54H73.49a4.24,4.24,0,0,0-4.24,4.24v26.38a2.39,2.39,0,0,0,2.38,2.38h0a2.62,2.62,0,0,0,2.62-2.62v5.75Z"/><circle class="cls-1" cx="17.25" cy="78.25" r="16"/><path class="cls-1" d="M28.25,130.38v-5.64a2.51,2.51,0,0,0,2.51,2.51h0a2.5,2.5,0,0,0,2.49-2.49v-26a4.54,4.54,0,0,0-4.54-4.54H5.49a4.24,4.24,0,0,0-4.24,4.24v26.38a2.39,2.39,0,0,0,2.38,2.38h0a2.62,2.62,0,0,0,2.62-2.62v5.75Z"/></g></g></svg>